:SAMPLES-PER-SECOND 30
:FULLY-SPECIFIED
:DEGREES
498
root  -36.5408 39.588 -32.1808 -49.0493 -86.1792 69.1564
RightUpLeg  -46.3867 -22.6926 11.1178
RightLeg  18.9143 0.778612 1.40742
RightFoot  4.7854 1.60119 -11.0263
RightToes  0.00048216 0.542163 -0.142577
Spine  64.0721 -4.19984 7.74124
Spine1  6.74214 1.23505 -2.84857
HEad  -32.252 -0.359693 -10.2106
LeftShoulder1  10.9635 -25.6659 -31.362
LeftArm  -21.3707 -44.5193 -19.5617
LeftForeArm  12.2679 2.52166 -5.43416
LeftHand  -0.25398 0.0180481 5.50724
RightShoulder  4.13284 15.3109 15.1656
RightArm  -21.4379 58.4216 21.5372
RightForeArm  -2.21157 -1.00709 7.24172
RightHand  -2.0249 4.86346 -22.9862
LeftUpLeg  -43.164 21.7388 -12.8533
LeftLeg  15.2391 2.81526 -0.222564
LeftFoot  8.07145 -0.857197 4.72069
LeftToes  1.06245e-005 4.65855e-005 -8.18504e-006
499
root  -36.4576 39.8107 -32.2326 -44.6733 -85.2948 62.9341
RightUpLeg  -42.3735 -21.3089 6.98796
RightLeg  16.9443 -2.84529 2.18685
RightFoot  5.54875 1.66484 -10.9141
RightToes  0.00048216 0.542163 -0.142577
Spine  63.1103 -3.93727 7.52617
Spine1  6.21652 0.839802 -1.67019
HEad  -31.1706 -0.037051 -10.9986
LeftShoulder1  10.7372 -24.0333 -32.7977
LeftArm  -17.9241 -36.4486 -26.6404
LeftForeArm  17.4814 0.938461 -5.01996
LeftHand  -0.25398 0.0180481 5.50724
RightShoulder  4.77473 15.4601 18.6513
RightArm  -15.2506 52.4145 25.6124
RightForeArm  -1.81403 -0.580886 8.1892
RightHand  -1.75436 4.10659 -21.55
LeftUpLeg  -39.1426 18.7081 -9.54899
LeftLeg  13.0493 5.50641 -1.35716
LeftFoot  10.4749 -0.77076 3.68911
LeftToes  1.06245e-005 4.65855e-005 -8.18504e-006
500
root  -36.3636 40.0081 -32.2567 -42.071 -84.1023 58.6117
RightUpLeg  -38.6782 -19.4908 2.62978
RightLeg  15.1877 -6.8812 3.04561
RightFoot  6.28738 1.71196 -10.7209
RightToes  0.00048216 0.542163 -0.142577
Spine  61.3746 -3.70918 7.47167
Spine1  6.7961 0.506609 -0.771127
HEad  -30.1685 -0.059657 -11.5963
LeftShoulder1  10.3598 -22.8669 -33.1289
LeftArm  -16.2456 -29.0338 -32.2085
LeftForeArm  21.0689 0.368564 -4.55732
LeftHand  -0.25398 0.0180481 5.50724
RightShoulder  5.30838 15.352 21.834
RightArm  -10.829 46.0045 27.0913
RightForeArm  -2.11316 0.250163 9.09067
RightHand  -1.58674 3.40873 -21.0301
LeftUpLeg  -35.5916 14.9228 -6.90843
LeftLeg  11.3087 6.7738 -2.17074
LeftFoot  11.6976 -0.24794 0.845661
LeftToes  1.06245e-005 4.65855e-005 -8.18504e-006
501
root  -36.2537 40.1723 -32.2205 -41.8149 -82.9414 56.7176
RightUpLeg  -35.431 -17.8849 -1.14762
RightLeg  13.5695 -10.1095 3.98375
RightFoot  7.03939 1.74754 -10.464
RightToes  0.00048216 0.542163 -0.142577
Spine  59.6159 -3.64227 7.51594
Spine1  7.42933 0.260253 -0.52383
HEad  -28.5935 0.122809 -12.2097
LeftShoulder1  10.6242 -22.1336 -35.2706
LeftArm  -13.968 -22.5633 -33.3112
LeftForeArm  22.3274 0.353471 -5.13286
LeftHand  -0.25398 0.0180481 5.50724
RightShoulder  5.82731 15.1676 25.0607
RightArm  -7.09721 39.3207 27.2683
RightForeArm  -2.7794 1.6279 9.9598
RightHand  -1.4958 2.91667 -20.9762
LeftUpLeg  -32.9012 12.4116 -6.16088
LeftLeg  11.2712 4.31917 -2.02567
LeftFoot  9.91599 0.444773 -2.73501
LeftToes  1.06245e-005 4.65855e-005 -8.18504e-006
502
root  -36.1313 40.3103 -32.1103 -41.9306 -82.1289 55.2682
RightUpLeg  -32.3615 -16.3348 -4.23007
RightLeg  11.7096 -12.7336 5.02415
RightFoot  7.88443 1.75444 -10.0061
RightToes  0.00048216 0.542163 -0.142577
Spine  58.164 -3.8462 7.81694
Spine1  7.60422 0.2029 -1.05585
HEad  -26.0791 0.874082 -13.0686
LeftShoulder1  11.3667 -21.5221 -39.1357
LeftArm  -10.4191 -16.5014 -30.7503
LeftForeArm  22.5556 -0.41268 -6.56788
LeftHand  -0.25398 0.0180481 5.50724
RightShoulder  6.34279 14.8517 28.5319
RightArm  -3.58772 32.5556 26.7364
RightForeArm  -2.73053 3.32929 10.743
RightHand  -1.47005 2.83009 -20.8345
LeftUpLeg  -30.7407 11.5588 -6.58966
LeftLeg  13.2278 0.181081 -1.13096
LeftFoot  5.57239 0.669673 -4.68819
LeftToes  1.06245e-005 4.65855e-005 -8.18504e-006
503
root  -35.9942 40.4233 -31.9252 -42.081 -81.6354 54.1157
RightUpLeg  -29.683 -15.0201 -6.5213
RightLeg  9.57888 -14.7327 5.98371
RightFoot  8.91075 1.71631 -9.24112
RightToes  0.00048216 0.542163 -0.142577
Spine  56.0558 -3.81975 8.11149
Spine1  8.65166 0.276576 -1.14776
HEad  -23.3435 2.23867 -14.7907
LeftShoulder1  12.0677 -20.7943 -43.1397
LeftArm  -7.01577 -11.0456 -27.6263
LeftForeArm  23.1676 -2.34528 -7.83719
LeftHand  -0.25398 0.0180481 5.50724
RightShoulder  6.57868 14.4119 30.7406
RightArm  -0.761241 26.3154 26.3797
RightForeArm  -2.12781 4.84912 11.1781
RightHand  -1.49055 3.01963 -20.6618
LeftUpLeg  -28.5554 10.5912 -6.58913
LeftLeg  15.9882 -0.680432 -0.023407
LeftFoot  0.940991 0.466648 -4.35392
LeftToes  1.06245e-005 4.65855e-005 -8.18504e-006
504
root  -35.8312 40.512 -31.6845 -42.9723 -81.2376 53.8272
RightUpLeg  -27.4338 -14.5284 -8.03932
RightLeg  7.54915 -15.4821 6.60272
RightFoot  10.0968 1.67157 -8.44067
RightToes  0.00048216 0.542163 -0.142577
Spine  53.9093 -3.73897 8.20926
Spine1  9.57359 0.271067 -1.13723
HEad  -20.3871 4.51802 -16.928
LeftShoulder1  12.2763 -19.9727 -45.5535
LeftArm  -4.82034 -5.29581 -26.004
LeftForeArm  24.0594 -5.10834 -8.38637
LeftHand  -0.25398 0.0180481 5.50724
RightShoulder  6.67252 13.9714 32.2186
RightArm  1.91424 20.3805 26.3852
RightForeArm  -2.38919 6.30403 11.3288
RightHand  -1.49007 3.04582 -20.5946
LeftUpLeg  -25.8733 9.02147 -5.88738
LeftLeg  18.4295 2.35734 1.22684
LeftFoot  -2.51744 0.281652 -3.47447
LeftToes  1.06245e-005 4.65855e-005 -8.18504e-006
505
root  -35.6284 40.5647 -31.4048 -44.9837 -80.8509 54.6365
RightUpLeg  -25.6091 -14.8288 -9.06506
RightLeg  6.02861 -14.9822 6.80382
RightFoot  11.2387 1.65484 -7.88147
RightToes  0.00048216 0.542163 -0.142577
Spine  52.1468 -3.63735 8.08813
Spine1  9.77864 0.18492 -1.15795
HEad  -17.2532 7.54045 -19.1692
LeftShoulder1  12.2469 -19.2158 -47.0148
LeftArm  -3.34693 0.767478 -25.1766
LeftForeArm  23.6784 -8.11993 -8.30633
LeftHand  -0.25398 0.0180481 5.50724
RightShoulder  6.71309 13.5303 33.4484
RightArm  4.72895 14.4283 26.4884
RightForeArm  -4.08639 8.03403 11.2728
RightHand  -1.42792 2.77112 -20.3932
LeftUpLeg  -22.7885 8.26577 -5.37497
LeftLeg  20.395 5.31923 2.50671
LeftFoot  -4.87356 0.21775 -3.3544
LeftToes  1.06245e-005 4.65855e-005 -8.18504e-006
506
root  -35.3799 40.563 -31.0747 -47.1035 -80.6086 55.6842
RightUpLeg  -24.3239 -15.133 -9.95673
RightLeg  5.06053 -14.4053 6.79824
RightFoot  12.1759 1.60757 -7.30442
RightToes  0.00048216 0.542163 -0.142577
Spine  50.3902 -3.50982 8.02338
Spine1  9.61969 0.153814 -1.23248
HEad  -14.1385 10.9873 -21.3369
LeftShoulder1  12.2777 -18.6297 -48.4126
LeftArm  -1.92511 6.58091 -24.2733
LeftForeArm  21.1931 -10.9465 -7.67266
LeftHand  -0.25398 0.0180481 5.50724
RightShoulder  6.73328 13.097 34.5913
RightArm  8.24217 8.45234 26.3791
RightForeArm  -7.20359 10.3064 10.9617
RightHand  -1.35293 2.50361 -19.9809
LeftUpLeg  -19.6739 7.88463 -4.7241
LeftLeg  22.1721 6.99313 3.44859
LeftFoot  -6.67641 0.190034 -3.68253
LeftToes  1.06245e-005 4.65855e-005 -8.18504e-006
507
root  -35.0936 40.5114 -30.6817 -46.6558 -80.8186 54.5438
RightUpLeg  -23.5183 -15.1505 -10.3917
RightLeg  4.08729 -14.4112 6.85488
RightFoot  13.1456 1.48838 -6.43036
RightToes  0.00048216 0.542163 -0.142577
Spine  48.1171 -3.58679 8.51575
Spine1  9.58058 0.296577 -1.71893
HEad  -11.1649 14.816 -23.0934
LeftShoulder1  12.2843 -18.1886 -49.4334
LeftArm  -1.58868 11.7367 -23.6133
LeftForeArm  18.3999 -13.1387 -6.81834
LeftHand  -0.25398 0.0180481 5.50724
RightShoulder  6.77887 12.7357 35.7564
RightArm  12.9245 2.75952 25.9395
RightForeArm  -11.5269 13.0465 10.3043
RightHand  -1.34306 2.52039 -19.7985
LeftUpLeg  -17.1019 7.42937 -3.34708
LeftLeg  24.1438 8.06058 4.26285
LeftFoot  -8.38505 0.148759 -3.79853
LeftToes  1.06245e-005 4.65855e-005 -8.18504e-006
